<?xml version="1.0" encoding="utf-8"?>
<!-- Generator: Adobe Illustrator 18.1.1, SVG Export Plug-In . SVG Version: 6.00 Build 0)  -->
<svg version="1.1" id="レイヤー_1" xmlns="http://www.w3.org/2000/svg" xmlns:xlink="http://www.w3.org/1999/xlink" x="0px"
	 y="0px" viewBox="0 0 113.2 112.6" enable-background="new 0 0 113.2 112.6" xml:space="preserve">
<g>
	<circle fill="#21A2DD" stroke="#000000" stroke-width="8" stroke-miterlimit="10" cx="56.5" cy="53.6" r="48.5"/>
	<path fill="none" stroke="#000000" stroke-width="6.4" stroke-linecap="round" stroke-miterlimit="10" d="M93,41.2
		c1.5,4.1,2.3,8.5,2.3,13.1c0,21.4-17.4,38.8-38.8,38.8S17.7,75.8,17.7,54.4c0-21.4,17.4-38.8,38.8-38.8c8.2,0,15.9,2.6,22.1,6.9"/>
	<path d="M45.8,43.1c0-1.4,0.3-2.8,0.8-4.1c0.6-1.3,1.3-2.4,2.3-3.4c1-1,2.1-1.7,3.4-2.3c1.3-0.6,2.7-0.8,4.2-0.8
		c1.5,0,2.9,0.3,4.2,0.8c1.3,0.6,2.4,1.3,3.4,2.3c1,1,1.7,2.1,2.3,3.4c0.6,1.3,0.8,2.7,0.8,4.2c0,0.7,0,1.4-0.1,2.2
		c-0.1,0.8-0.2,1.6-0.4,2.3c-0.2,0.8-0.5,1.5-0.8,2.2c-0.4,0.7-0.8,1.3-1.4,1.7c0.6,0.6,1.2,1.3,1.8,2.1c0.5,0.9,1,1.8,1.4,2.8
		c0.4,1,0.7,2,0.9,3.1c0.2,1,0.3,2,0.3,2.9c0,1.7-0.3,3.3-1,4.7c-0.6,1.5-1.5,2.8-2.6,3.9c-1.1,1.1-2.4,2-3.9,2.6
		c-1.5,0.6-3.1,1-4.8,1c-1.7,0-3.3-0.3-4.7-1C50.3,73,49,72.2,47.9,71c-1.1-1.1-2-2.4-2.6-3.9c-0.7-1.5-1-3-1-4.7
		c0-0.9,0.3-1.7,0.9-2.3c0.6-0.6,1.4-0.9,2.3-0.9c0.9,0,1.6,0.3,2.3,0.9c0.6,0.6,1,1.4,1,2.3c0,1.6,0.6,3,1.7,4
		c1.1,1.1,2.5,1.6,4.1,1.6c1.6,0,3-0.5,4.1-1.7c1.1-1.1,1.7-2.5,1.7-4.1c0-0.8-0.2-1.5-0.5-2.3c-0.3-0.8-0.7-1.5-1.3-2.2
		c-0.5-0.7-1.2-1.2-1.9-1.6c-0.7-0.4-1.5-0.6-2.3-0.7c-0.9,0-1.6-0.3-2.3-1c-0.6-0.7-0.9-1.5-0.9-2.4c0-0.9,0.3-1.7,0.8-2.4
		c0.5-0.7,1.3-1.1,2.4-1.1l0.2,0c0.8,0,1.5-0.2,2.1-0.6c0.5-0.3,1-0.8,1.3-1.3c0.3-0.5,0.5-1.1,0.6-1.7c0.1-0.6,0.1-1.2,0.1-1.8
		c0-1.2-0.4-2.2-1.3-3c-0.8-0.8-1.8-1.3-3-1.3c-1.2,0-2.2,0.4-3,1.2c-0.8,0.8-1.2,1.8-1.2,3c0,0.9-0.3,1.7-1,2.3
		c-0.6,0.6-1.4,0.9-2.3,0.9c-0.9,0-1.7-0.3-2.3-0.9C46.1,44.9,45.8,44.1,45.8,43.1z"/>
</g>
<circle fill="#F4EA2A" stroke="#000000" stroke-width="8" stroke-miterlimit="10" cx="135.5" cy="234.3" r="48.5"/>
<path fill="none" stroke="#000000" stroke-width="6.4" stroke-linecap="round" stroke-miterlimit="10" d="M170.6,250.8
	c-1.9,3.9-4.4,7.6-7.7,10.9c-15.2,15.2-39.7,15.2-54.9,0s-15.2-39.7,0-54.9s39.7-15.2,54.9,0c5.8,5.8,9.4,13,10.8,20.5"/>
<path d="M263.4,227.6c0-1.5,0.3-2.9,0.9-4.3c0.6-1.3,1.4-2.5,2.4-3.5s2.2-1.8,3.5-2.4c1.3-0.6,2.8-0.9,4.4-0.9c1.5,0,3,0.3,4.3,0.9
	c1.4,0.6,2.6,1.4,3.6,2.4s1.8,2.2,2.4,3.5c0.6,1.3,0.9,2.8,0.9,4.3v8c0,1.5-0.3,3-0.9,4.3c-0.6,1.3-1.4,2.5-2.4,3.5
	s-2.2,1.8-3.5,2.4c-1.3,0.6-2.8,0.9-4.4,0.9c-0.8,0-1.7-0.1-2.5-0.3c-0.8-0.2-1.6-0.5-2.2-0.8v7.4c0,0.9-0.3,1.7-1,2.3
	c-0.6,0.6-1.4,0.9-2.2,0.9c-0.9,0-1.7-0.3-2.3-0.9c-0.6-0.6-0.9-1.4-0.9-2.3V227.6z M269.9,235.7c0,0.6,0.1,1.2,0.4,1.8
	c0.3,0.6,0.6,1.1,1,1.5s0.9,0.8,1.5,1c0.6,0.2,1.2,0.4,1.8,0.4c1.3,0,2.4-0.4,3.4-1.3c0.9-0.9,1.4-2,1.4-3.3v-8
	c0-0.6-0.1-1.2-0.4-1.8c-0.3-0.6-0.6-1-1-1.5s-0.9-0.8-1.5-1c-0.6-0.2-1.2-0.4-1.8-0.4c-1.3,0-2.4,0.5-3.4,1.4
	c-0.9,0.9-1.4,2-1.4,3.3V235.7z"/>
<circle fill="#DB1583" stroke="#000000" stroke-width="8" stroke-miterlimit="10" cx="232.5" cy="121.1" r="48.5"/>
<path fill="none" stroke="#000000" stroke-width="6.4" stroke-linecap="round" stroke-miterlimit="10" d="M224.3,159.5
	c-4.3-0.9-8.4-2.6-12.3-5c-18.2-11.4-23.7-35.3-12.3-53.5s35.3-23.7,53.5-12.3c18.2,11.4,23.7,35.3,12.3,53.5
	c-4.4,7-10.6,12.1-17.6,15.1"/>
<g>
	<path d="M230.4,101L230.4,101c0.2-0.2,0.5-0.3,0.9-0.4c0.3-0.1,0.7-0.2,1-0.2c0.9,0,1.7,0.3,2.4,1c0.7,0.7,1,1.5,1,2.4v35.3
		c0,1-0.3,1.8-1,2.4c-0.7,0.7-1.4,1-2.4,1c-0.9,0-1.7-0.3-2.4-1c-0.7-0.7-1-1.5-1-2.4v-29.4c-0.3,0.1-0.5,0.3-0.8,0.4
		c-0.6,0.3-1.2,0.5-1.8,0.5c-0.8,0-1.6-0.3-2.3-0.9c-0.7-0.6-1.1-1.4-1.1-2.5c0-0.5,0.1-1.1,0.4-1.7c0.3-0.6,0.7-1,1.3-1.4l-0.1,0.1
		L230.4,101z"/>
</g>
<g>
	<path d="M142.4,226.1c0-1.7-0.6-3.1-1.8-4.3c-1.2-1.2-2.6-1.7-4.3-1.7c-0.8,0-1.6,0.1-2.3,0.4c-0.7,0.3-1.4,0.7-2,1.2
		c-0.6,0.5-1,1.1-1.4,1.9c-0.3,0.7-0.5,1.5-0.5,2.3c0,1-0.3,1.8-1,2.4c-0.7,0.7-1.4,1-2.4,1c-1,0-1.8-0.3-2.4-1
		c-0.7-0.7-1-1.5-1-2.4c0-1.7,0.3-3.3,1-4.9c0.7-1.5,1.6-2.9,2.8-4c1.2-1.1,2.5-2,4.1-2.7c1.6-0.7,3.2-1,4.9-1c1.8,0,3.4,0.3,5,1
		c1.6,0.7,2.9,1.6,4.1,2.8c1.2,1.2,2.1,2.5,2.7,4.1c0.7,1.6,1,3.2,1,5c0,1.6-0.3,3-0.8,4.4c-0.5,1.4-1.2,2.6-2.1,3.7l-11.9,15.2h12
		c0.9,0,1.7,0.3,2.4,1c0.7,0.7,1,1.4,1,2.4c0,1-0.3,1.8-1,2.4c-0.7,0.7-1.5,1-2.4,1h-19.5c-1,0-1.8-0.3-2.4-1c-0.7-0.7-1-1.5-1-2.4
		c0-0.8,0.3-1.6,0.8-2.2l16.8-20.8c0.4-0.4,0.7-0.9,0.9-1.7C142.3,227.5,142.4,226.8,142.4,226.1z"/>
</g>
</svg>
