<?xml version="1.0" encoding="utf-8"?>
<!-- Generator: Adobe Illustrator 28.1.0, SVG Export Plug-In . SVG Version: 6.00 Build 0)  -->
<svg version="1.1" id="レイヤー_1" xmlns="http://www.w3.org/2000/svg" xmlns:xlink="http://www.w3.org/1999/xlink" x="0px"
	 y="0px" viewBox="0 0 60 60" style="enable-background:new 0 0 60 60;" xml:space="preserve">
<style type="text/css">
	.st0{fill:#DB1583;}
	.st1{fill:#1FA3DD;}
	.st2{fill:#F4E827;}
	.st3{fill:none;stroke:#000000;stroke-width:2.0216;stroke-linejoin:round;stroke-miterlimit:10;}
	.st4{fill:none;stroke:#000000;stroke-width:1.8935;stroke-linejoin:round;stroke-miterlimit:10;}
</style>
<g>
	<path class="st0" d="M29.93,51.04l28.04,0.02L44.04,26.69l-5.18,3.07c0.85-2.06,0.07-4.49-1.91-5.63
		c-2.16-1.25-4.92-0.51-6.17,1.65c-1.25,2.16-0.51,4.92,1.65,6.17c0.56,0.32,1.16,0.51,1.76,0.58l-4.24,2.19L29.93,51.04z"/>
	<path class="st1" d="M33.54,32.39c-0.37-0.1-0.73-0.25-1.07-0.45c-2.16-1.25-2.9-4.01-1.65-6.17c1.25-2.16,4.01-2.9,6.17-1.65
		c1.8,1.04,2.61,3.14,2.11,5.06l4.9-2.83L29.99,2.07L15.86,26.34l5.25,2.95c-2.21,0.29-3.92,2.19-3.92,4.48
		c0,2.5,2.02,4.52,4.52,4.52c2.5,0,4.52-2.02,4.52-4.52c0-0.65-0.14-1.26-0.38-1.82l4.02,2.57L33.54,32.39z"/>
	<path class="st2" d="M30.96,38.37c-0.56,0.33-1.02,0.75-1.38,1.24l0.2-4.77l-3.67-2.1c0.08,0.33,0.12,0.67,0.12,1.01
		c0,2.5-2.02,4.52-4.52,4.52c-2.5,0-4.52-2.02-4.52-4.52c0-2.02,1.33-3.74,3.17-4.31l-4.74-2.72L1.68,51.07l28.08,0l-0.09-6.02
		c1.37,1.76,3.86,2.29,5.84,1.13c2.16-1.26,2.89-4.02,1.63-6.18C35.88,37.85,33.12,37.12,30.96,38.37z"/>
	<g>
		<polygon class="st3" points="30.13,2.23 1.58,51.24 58.42,51.24 		"/>
		<path class="st4" d="M15.84,26.74"/>
		<g>
			<path class="st4" d="M44.18,26.35L30.17,2.07L16.03,26.34l5.25,2.95c-2.21,0.29-3.92,2.19-3.92,4.48c0,2.5,2.02,4.52,4.52,4.52
				c2.5,0,4.52-2.02,4.52-4.52c0-0.65-0.14-1.26-0.38-1.82l4.09,2.6"/>
			<path class="st4" d="M15.84,26.74L1.91,51.07l28.08,0l-0.09-6.02c1.37,1.76,3.86,2.29,5.84,1.13c2.16-1.26,2.89-4.02,1.63-6.18
				c-1.26-2.16-4.02-2.89-6.18-1.63c-0.56,0.33-1.02,0.75-1.38,1.24l0.26-4.87"/>
			<path class="st4" d="M30.16,51.04l28.04,0.02L44.27,26.69l-5.18,3.07c0.85-2.06,0.07-4.49-1.91-5.63
				c-2.16-1.25-4.92-0.51-6.17,1.65c-1.25,2.16-0.51,4.92,1.65,6.17c0.56,0.32,1.16,0.51,1.76,0.58l-4.49,2.3"/>
		</g>
	</g>
	<g>
		<path d="M14.27,56.48v-0.39h0.51v0.39h0.65v0.51h-0.65v0.26h0.7v0.51h-0.56c0.17,0.28,0.35,0.47,0.62,0.65l-0.2,0.62
			c-0.35-0.27-0.54-0.68-0.56-0.73v0.9h-0.51v-0.95c-0.09,0.22-0.21,0.49-0.58,0.8l-0.32-0.52c0.44-0.28,0.58-0.53,0.71-0.77h-0.51
			c0.06,0.09,0.11,0.13,0.15,0.17l-0.3,0.4c-0.13-0.28-0.14-0.33-0.17-0.46v1.32h-0.5V58.1c-0.08,0.21-0.15,0.39-0.28,0.58
			l-0.15-0.72c0.19-0.24,0.29-0.44,0.41-0.85h-0.34v-0.49h0.38v-0.53h0.5v0.53h0.28v0.16c0.12-0.25,0.16-0.51,0.18-0.63l0.47,0.04
			c-0.03,0.19-0.04,0.25-0.05,0.3H14.27z M13.76,57.26l-0.23-0.19v0.05h-0.28v0.08c0.03,0.07,0.1,0.26,0.28,0.52v-0.45H13.76z
			 M14.27,57.26v-0.26h-0.3c-0.06,0.13-0.1,0.21-0.13,0.26H14.27z"/>
		<path d="M15.76,58.57c0.1,0,0.27,0,0.58-0.03v-0.73h-0.48v-0.53h1.51v0.53h-0.48v0.69c0.21-0.02,0.42-0.04,0.6-0.07l0.01,0.51
			c-0.41,0.08-0.53,0.09-1.68,0.2L15.76,58.57z M18.59,56.52h0.29v0.53h-0.88c0.02,0.3,0.06,0.92,0.2,1.25
			c0.01,0.02,0.09,0.21,0.17,0.21c0.11,0,0.31-0.23,0.4-0.43l0.18,0.63c-0.09,0.17-0.25,0.5-0.58,0.5c-0.15,0-0.3-0.08-0.38-0.16
			c-0.48-0.48-0.52-1.46-0.54-2.01h-1.65v-0.53h1.63c0-0.06-0.01-0.36-0.01-0.43h0.58v0.43h0.25c-0.07-0.15-0.09-0.19-0.18-0.3
			l0.5-0.14c0.06,0.09,0.19,0.29,0.23,0.38L18.59,56.52z"/>
		<path d="M19.87,57.2c-0.25,0.15-0.36,0.19-0.48,0.24l-0.27-0.56c0.82-0.3,1.13-0.59,1.3-0.81h0.65c0.13,0.14,0.45,0.51,1.28,0.8
			l-0.28,0.55c-0.11-0.05-0.25-0.1-0.46-0.23v0.2h-1.74V57.2z M21.73,59.24c-0.04-0.08-0.08-0.15-0.13-0.23
			c-1.24,0.09-1.38,0.11-2.23,0.14l-0.09-0.56h0.48c0.11-0.25,0.16-0.39,0.19-0.5h-0.69v-0.52h2.95v0.52h-0.61
			c0.3,0.34,0.52,0.68,0.65,0.88L21.73,59.24z M21.2,56.91c-0.24-0.18-0.37-0.32-0.45-0.41c-0.05,0.06-0.14,0.17-0.45,0.41H21.2z
			 M21.43,58.09h-0.88c-0.03,0.08-0.12,0.29-0.22,0.49c0.08,0,0.84-0.02,0.97-0.03c-0.12-0.16-0.18-0.23-0.24-0.3L21.43,58.09z"/>
		<path d="M23.54,59.2h-0.55v-1.04c-0.14,0.12-0.24,0.19-0.33,0.25l-0.12-0.66c0.34-0.2,0.63-0.52,0.74-0.73H22.6v-0.5h0.38v-0.43
			h0.55v0.43h0.32v0.5c-0.04,0.11-0.09,0.22-0.23,0.44c0.17,0.19,0.33,0.28,0.43,0.34l-0.27,0.52c-0.07-0.07-0.16-0.16-0.25-0.3
			V59.2z M24.47,56.09h0.56v0.77h0.62v0.56h-0.62v1.15h0.66v0.55h-1.95v-0.55h0.73v-1.15h-0.56v-0.56h0.56V56.09z"/>
		<path d="M27.5,58.57c0.17-0.06,0.59-0.2,1.12-0.74c0.44-0.45,0.57-0.78,0.66-1h-1.56V56.2h2.46c-0.06,0.39-0.16,0.86-0.59,1.49
			c0.39,0.27,0.76,0.58,1.09,0.92l-0.57,0.56c-0.32-0.37-0.74-0.8-0.94-0.97c-0.25,0.26-0.68,0.67-1.31,0.94L27.5,58.57z"/>
		<path d="M32.11,58.02H31.4v-1.86h0.71V58.02z M33.72,57.62c0,0.23-0.06,0.71-0.47,1.05c-0.38,0.32-1.11,0.41-1.41,0.45l-0.27-0.65
			c1.05-0.08,1.42-0.28,1.42-0.85v-1.51h0.72V57.62z"/>
		<path d="M37.52,57.23v0.69h-3.01v-0.69H37.52z"/>
		<path d="M38.86,56.15V57c0.56-0.15,0.85-0.25,1.33-0.49l0.48,0.52c-0.57,0.29-1.19,0.49-1.81,0.63v0.53c0,0.14,0,0.17,0.19,0.17
			h0.87c0.41,0,0.7-0.07,0.81-0.09l0.04,0.7c-0.26,0.04-0.53,0.05-0.65,0.05H38.9c-0.44,0-0.74-0.13-0.74-0.61v-2.26H38.86z
			 M40.73,56.76c-0.22,0-0.4-0.18-0.4-0.4c0-0.22,0.18-0.4,0.4-0.4c0.22,0,0.4,0.18,0.4,0.4C41.13,56.58,40.95,56.76,40.73,56.76z
			 M40.73,56.22c-0.08,0-0.14,0.06-0.14,0.14c0,0.08,0.06,0.14,0.14,0.14c0.08,0,0.14-0.06,0.14-0.14
			C40.87,56.29,40.81,56.22,40.73,56.22z"/>
		<path d="M44.23,57.23v0.69h-3.01v-0.69H44.23z"/>
		<path d="M44.5,58.57c0.17-0.06,0.59-0.2,1.12-0.74c0.44-0.45,0.57-0.78,0.66-1h-1.56V56.2h2.46c-0.06,0.39-0.16,0.86-0.59,1.49
			c0.39,0.27,0.76,0.58,1.09,0.92l-0.57,0.56c-0.32-0.37-0.74-0.8-0.94-0.97c-0.25,0.26-0.68,0.67-1.31,0.94L44.5,58.57z"/>
	</g>
</g>
</svg>
