<?xml version="1.0" encoding="utf-8"?>
<!-- Generator: Adobe Illustrator 28.1.0, SVG Export Plug-In . SVG Version: 6.00 Build 0)  -->
<svg version="1.1" id="レイヤー_1" xmlns="http://www.w3.org/2000/svg" xmlns:xlink="http://www.w3.org/1999/xlink" x="0px"
	 y="0px" viewBox="0 0 654.1 774.1" style="enable-background:new 0 0 654.1 774.1;" xml:space="preserve">
<style type="text/css">
	.st0{fill:#DB1583;stroke:#000000;stroke-width:8;stroke-miterlimit:10;}
	.st1{fill:none;stroke:#000000;stroke-width:6.4;stroke-linecap:round;stroke-miterlimit:10;}
	.st2{fill:none;stroke:#000000;stroke-width:8.9871;stroke-linecap:round;stroke-miterlimit:10;}
	.st3{fill:none;stroke:#000000;stroke-width:8;stroke-linecap:round;stroke-miterlimit:10;}
	.st4{fill:#21A2DD;stroke:#000000;stroke-width:8;stroke-miterlimit:10;}
	.st5{fill:#F4EA2A;stroke:#000000;stroke-width:8;stroke-miterlimit:10;}
	.st6{fill:#FCF4D4;}
</style>
<g>
	
		<ellipse transform="matrix(0.1602 -0.9871 0.9871 0.1602 -31.8396 839.777)" class="st0" cx="477.6" cy="438.6" rx="48.5" ry="48.5"/>
	<path class="st1" d="M474.3,477.7c-4.3-0.4-8.7-1.5-12.9-3.4c-19.5-9-28-32-19-51.5s32-28,51.5-19c19.5,9,28,32,19,51.5
		c-3.4,7.5-9,13.3-15.5,17.2"/>
	<path d="M466,436c-0.2-1.5-0.1-3,0.3-4.4s1-2.7,1.9-3.8c0.9-1.1,2-2.1,3.2-2.8c1.3-0.7,2.7-1.2,4.2-1.4c1.5-0.2,3-0.1,4.4,0.3
		s2.7,1,3.8,1.9s2.1,2,2.8,3.2c0.7,1.3,1.2,2.6,1.4,4.1l0.5,4c0.1,0.9-0.1,1.7-0.6,2.4c-0.5,0.7-1.2,1.1-2.1,1.2l-12.6,1.6l0.1,0.8
		c0.2,1.3,0.8,2.3,1.8,3.1c1,0.8,2.2,1.1,3.4,0.9c0.5-0.1,1-0.2,1.6-0.4c0.6-0.2,1.1-0.7,1.6-1.4c0.2-0.3,0.5-0.6,0.8-1
		c0.3-0.3,0.7-0.6,1.1-0.8c0.4-0.2,0.8-0.3,1.3-0.4c0.5,0,1,0.1,1.5,0.4c0.7,0.4,1.2,0.9,1.5,1.7c0.3,0.8,0.2,1.7-0.3,2.7
		c-0.7,1.3-1.7,2.4-3,3.6c-1.3,1.1-3,1.8-5.3,2.1c-1.5,0.2-3,0.1-4.4-0.3s-2.7-1-3.8-1.9c-1.1-0.9-2.1-2-2.8-3.2
		c-0.7-1.3-1.2-2.6-1.4-4.1L466,436z M472.5,435.9l9.3-1.2l-0.1-0.8c-0.1-0.6-0.3-1.2-0.6-1.7c-0.3-0.5-0.7-1-1.2-1.3
		s-1-0.6-1.6-0.8c-0.6-0.2-1.2-0.2-1.9-0.1c-1.3,0.2-2.4,0.8-3.1,1.8c-0.8,1-1.1,2.1-0.9,3.4L472.5,435.9z"/>
</g>
<g>
	<circle class="st0" cx="522.6" cy="609.5" r="48.5"/>
	<path class="st1" d="M509.8,646.6c-4.1-1.4-8.1-3.6-11.6-6.5c-16.7-13.5-19.3-37.9-5.8-54.6c13.5-16.7,37.9-19.3,54.6-5.8
		s19.3,37.9,5.8,54.6c-5.2,6.4-12,10.7-19.3,12.9"/>
	<path d="M512,604.1c0.2-1.5,0.6-2.9,1.4-4.2c0.7-1.3,1.7-2.3,2.8-3.2s2.4-1.5,3.8-2c1.4-0.4,2.9-0.5,4.4-0.3s2.9,0.6,4.2,1.4
		c1.3,0.7,2.4,1.7,3.3,2.8c0.9,1.1,1.5,2.4,2,3.8c0.4,1.4,0.5,2.9,0.3,4.4l-0.5,4c-0.1,0.9-0.5,1.6-1.2,2.2
		c-0.7,0.5-1.5,0.8-2.3,0.7l-12.6-1.5l-0.1,0.8c-0.2,1.3,0.2,2.4,1,3.4s1.8,1.6,3.1,1.7c0.5,0.1,1,0.1,1.7,0c0.6,0,1.3-0.4,1.9-1
		c0.3-0.2,0.6-0.5,1-0.8s0.8-0.4,1.2-0.5s0.9-0.1,1.4,0s0.9,0.3,1.4,0.7c0.6,0.5,0.9,1.2,1.1,2c0.1,0.8-0.2,1.7-0.9,2.5
		c-1,1-2.3,2-3.8,2.7c-1.5,0.8-3.4,1-5.6,0.7c-1.5-0.2-2.9-0.6-4.2-1.4c-1.3-0.7-2.4-1.7-3.3-2.8c-0.9-1.1-1.5-2.4-2-3.8
		c-0.4-1.4-0.5-2.9-0.3-4.4L512,604.1z M518.3,605.7l9.4,1.1l0.1-0.8c0.1-0.6,0-1.2-0.2-1.8s-0.5-1.1-0.8-1.6
		c-0.4-0.5-0.8-0.9-1.4-1.2c-0.5-0.3-1.1-0.5-1.8-0.6c-1.3-0.2-2.5,0.2-3.5,0.9c-1,0.8-1.6,1.8-1.7,3.1L518.3,605.7z"/>
</g>
<path class="st2" d="M200.4,155.9c-4.5-0.4-8.9-0.8-13.3-1.2c-5.8-0.5-11.6-1.1-17.2-1.7c-7.1-0.8-14.1-1.6-20.8-2.5"/>
<path class="st2" d="M103.5,141.1c-45.3-9.9-72.7-22.8-72.7-37c0-31.1,132.7-56.4,296.4-56.4S623.5,73,623.5,104.1
	s-132.7,56.4-296.4,56.4c-37.4,0-73.2-1.3-106.1-3.7"/>
<path class="st3" d="M30.8,104.7c0,0,25.5,56.4,25.5,116.4s0,356.4,0,394.5s14.5,72.7,60,87.3c45.5,14.5,120,29.8,210.9,29.8"/>
<path class="st3" d="M623.4,104.7c0,0-25.5,56.4-25.5,116.4s0,356.4,0,394.5s-14.5,72.7-60,87.3c-45.5,14.5-109,29.8-210.9,29.8"/>
<path class="st3" d="M95.3,139.2"/>
<g>
	<circle class="st4" cx="130.4" cy="636.9" r="48.5"/>
	<path class="st1" d="M164.3,618.5c2.2,3.8,3.7,8,4.5,12.5c3.7,21.1-10.5,41.2-31.6,44.9S96,665.4,92.3,644.3s10.5-41.2,31.6-44.9
		c8.1-1.4,16.1-0.2,23,3"/>
	<path d="M118.1,628.4c-0.2-1.4-0.2-2.8,0.1-4.2c0.3-1.4,0.9-2.6,1.7-3.7c0.8-1.1,1.8-2.1,3-2.8c1.2-0.8,2.5-1.3,4-1.5
		c1.5-0.3,2.9-0.2,4.3,0.1c1.4,0.3,2.6,0.9,3.8,1.7c1.1,0.8,2.1,1.8,2.9,2.9c0.8,1.2,1.3,2.5,1.5,4c0.1,0.7,0.2,1.4,0.3,2.2
		s0,1.6,0,2.3c-0.1,0.8-0.2,1.5-0.5,2.3c-0.2,0.7-0.6,1.4-1.1,2c0.7,0.4,1.4,1,2.1,1.8c0.7,0.8,1.3,1.6,1.8,2.5s1,1.9,1.4,2.9
		s0.6,1.9,0.8,2.8c0.3,1.7,0.2,3.3-0.1,4.8c-0.4,1.5-1,3-1.9,4.3s-2,2.4-3.4,3.3c-1.4,0.9-2.9,1.5-4.5,1.8c-1.7,0.3-3.3,0.2-4.8-0.1
		c-1.6-0.4-3-1-4.3-1.9s-2.4-2-3.3-3.4c-0.9-1.3-1.5-2.8-1.8-4.5c-0.2-0.9,0-1.7,0.5-2.4s1.2-1.2,2.1-1.3c0.9-0.2,1.7,0,2.4,0.5
		c0.7,0.5,1.2,1.2,1.3,2.1c0.3,1.6,1.1,2.8,2.3,3.7c1.3,0.9,2.7,1.2,4.3,0.9s2.9-1.1,3.8-2.3c0.9-1.3,1.2-2.7,1-4.3
		c-0.1-0.7-0.4-1.5-0.8-2.2c-0.4-0.7-1-1.4-1.6-1.9c-0.6-0.6-1.3-1-2.1-1.3s-1.5-0.4-2.3-0.3c-0.9,0.2-1.7-0.1-2.4-0.6
		c-0.7-0.6-1.2-1.3-1.3-2.2c-0.2-0.9,0-1.7,0.4-2.5s1.1-1.3,2.1-1.5h0.2c0.8-0.2,1.5-0.5,1.9-0.9c0.5-0.4,0.8-0.9,1-1.5
		s0.3-1.2,0.3-1.8s-0.1-1.2-0.2-1.8c-0.2-1.1-0.8-2.1-1.8-2.7c-1-0.7-2-0.9-3.2-0.7s-2.1,0.8-2.8,1.7c-0.7,0.9-0.9,2-0.7,3.1
		c0.2,0.9,0,1.7-0.5,2.4s-1.2,1.2-2.1,1.3c-0.9,0.2-1.7,0-2.4-0.5C118.7,630.1,118.2,629.4,118.1,628.4z"/>
</g>
<g>
	<circle class="st4" cx="275.3" cy="588.4" r="48.5"/>
	<path class="st1" d="M306.2,565.2c2.7,3.4,4.8,7.4,6.3,11.7c6.7,20.4-4.3,42.3-24.7,49c-20.4,6.7-42.3-4.3-49-24.7
		s4.3-42.3,24.7-49c7.8-2.6,15.9-2.5,23.2-0.4"/>
	<path d="M261.8,581.8c-0.5-1.4-0.6-2.8-0.5-4.2s0.5-2.7,1.1-3.9s1.5-2.3,2.5-3.2c1.1-0.9,2.3-1.6,3.7-2.1c1.4-0.5,2.8-0.6,4.2-0.5
		c1.4,0.1,2.7,0.5,4,1.1c1.2,0.6,2.3,1.4,3.3,2.5c0.9,1.1,1.6,2.3,2.1,3.7c0.2,0.6,0.4,1.4,0.6,2.1c0.2,0.8,0.3,1.5,0.3,2.3
		s0,1.6-0.1,2.3c-0.1,0.8-0.4,1.5-0.8,2.1c0.8,0.3,1.6,0.8,2.3,1.5c0.8,0.6,1.5,1.4,2.2,2.2s1.3,1.7,1.8,2.6
		c0.5,0.9,0.9,1.8,1.2,2.7c0.5,1.6,0.7,3.2,0.6,4.8c-0.2,1.6-0.6,3.1-1.3,4.5c-0.7,1.4-1.7,2.7-2.9,3.7c-1.2,1.1-2.6,1.9-4.2,2.4
		s-3.2,0.7-4.8,0.6c-1.6-0.1-3.1-0.6-4.5-1.3s-2.6-1.7-3.7-2.8c-1.1-1.2-1.9-2.6-2.4-4.2c-0.3-0.9-0.2-1.7,0.2-2.5
		c0.4-0.8,1-1.3,1.9-1.6c0.8-0.3,1.7-0.2,2.5,0.2s1.3,1,1.6,1.9c0.5,1.5,1.5,2.6,2.9,3.3s2.9,0.8,4.4,0.3c1.6-0.5,2.7-1.5,3.4-2.9
		c0.7-1.4,0.8-2.9,0.3-4.4c-0.2-0.7-0.6-1.4-1.2-2.1c-0.5-0.6-1.2-1.2-1.9-1.7c-0.7-0.5-1.5-0.8-2.3-1s-1.6-0.2-2.4,0
		c-0.8,0.3-1.7,0.2-2.5-0.3s-1.3-1.1-1.6-2c-0.3-0.8-0.3-1.7,0-2.6c0.3-0.9,0.9-1.5,1.9-1.8l0.2-0.1c0.8-0.3,1.4-0.7,1.8-1.2
		s0.7-1,0.8-1.6c0.1-0.6,0.1-1.2,0-1.8s-0.2-1.2-0.4-1.7c-0.4-1.1-1.1-1.9-2.1-2.5c-1.1-0.5-2.1-0.6-3.2-0.3c-1.1,0.4-2,1.1-2.5,2.1
		s-0.6,2.1-0.2,3.2c0.3,0.9,0.2,1.7-0.2,2.5c-0.4,0.8-1,1.3-1.9,1.6s-1.7,0.2-2.5-0.2C262.7,583.4,262.2,582.7,261.8,581.8z"/>
</g>
<g>
	<circle class="st4" cx="142.7" cy="529.7" r="48.5"/>
	<path class="st1" d="M181.2,529.1c0.2,4.4-0.4,8.8-1.8,13.2c-6.5,20.4-28.4,31.6-48.8,25.1S99,539,105.5,518.6
		c6.5-20.4,28.4-31.6,48.8-25.1c7.8,2.5,14.3,7.3,19,13.3"/>
	<path d="M135.6,516.4c0.4-1.4,1.1-2.6,2.1-3.7c0.9-1.1,2-1.9,3.2-2.5s2.5-1,4-1.1c1.4-0.1,2.8,0,4.2,0.5s2.6,1.1,3.7,2.1
		c1.1,0.9,1.9,2,2.6,3.2c0.6,1.2,1,2.5,1.2,3.9c0.1,1.4,0,2.8-0.5,4.2c-0.2,0.6-0.5,1.3-0.8,2s-0.7,1.4-1.1,2.1
		c-0.4,0.7-0.9,1.3-1.5,1.8s-1.2,0.9-1.9,1.2c0.4,0.7,0.8,1.6,1,2.6c0.3,1,0.4,2,0.5,3.1s0,2.1-0.1,3.2c-0.1,1.1-0.3,2-0.6,2.9
		c-0.5,1.6-1.3,3-2.4,4.2c-1.1,1.2-2.3,2.2-3.7,2.9s-2.9,1.2-4.5,1.3c-1.6,0.2-3.2,0-4.8-0.5s-3-1.3-4.2-2.4
		c-1.2-1.1-2.2-2.3-2.9-3.7s-1.1-2.9-1.3-4.5s0-3.2,0.5-4.8c0.3-0.9,0.8-1.5,1.6-1.9s1.6-0.5,2.5-0.2c0.8,0.3,1.5,0.8,1.9,1.6
		s0.5,1.6,0.2,2.5c-0.5,1.5-0.4,3,0.4,4.4c0.7,1.4,1.9,2.3,3.4,2.8c1.6,0.5,3,0.4,4.4-0.3s2.4-1.8,2.9-3.4c0.2-0.7,0.3-1.5,0.3-2.3
		s-0.2-1.6-0.5-2.4c-0.3-0.8-0.7-1.5-1.3-2.1c-0.5-0.6-1.2-1.1-1.9-1.3c-0.8-0.3-1.4-0.8-1.8-1.7c-0.4-0.9-0.4-1.7-0.2-2.5
		c0.3-0.8,0.8-1.5,1.5-2.1c0.7-0.5,1.6-0.7,2.6-0.3l0.2,0.1c0.8,0.2,1.5,0.2,2.1,0.1c0.6-0.2,1.2-0.4,1.6-0.9
		c0.5-0.4,0.8-0.9,1.1-1.5s0.5-1.1,0.7-1.6c0.4-1.1,0.3-2.2-0.3-3.2c-0.5-1.1-1.4-1.8-2.5-2.1c-1.1-0.4-2.2-0.3-3.3,0.2
		c-1,0.5-1.7,1.3-2.1,2.5c-0.3,0.9-0.8,1.5-1.6,1.9s-1.6,0.5-2.5,0.2s-1.5-0.8-1.9-1.6C135.4,518.2,135.3,517.4,135.6,516.4z"/>
</g>
<g>
	<circle class="st5" cx="178.9" cy="598.1" r="48.5"/>
	<path class="st1" d="M214,614.6c-1.9,3.9-4.4,7.6-7.7,10.9c-15.2,15.2-39.7,15.2-54.9,0s-15.2-39.7,0-54.9s39.7-15.2,54.9,0
		c5.8,5.8,9.4,13,10.8,20.5"/>
	<path d="M167.5,589.3c0-1.5,0.3-2.9,0.9-4.3c0.6-1.3,1.4-2.5,2.4-3.5s2.2-1.8,3.5-2.4c1.3-0.6,2.8-0.9,4.4-0.9c1.5,0,3,0.3,4.3,0.9
		c1.4,0.6,2.6,1.4,3.6,2.4s1.8,2.2,2.4,3.5c0.6,1.3,0.9,2.8,0.9,4.3v8c0,1.5-0.3,3-0.9,4.3c-0.6,1.3-1.4,2.5-2.4,3.5
		s-2.2,1.8-3.5,2.4c-1.3,0.6-2.8,0.9-4.4,0.9c-0.8,0-1.7-0.1-2.5-0.3s-1.6-0.5-2.2-0.8v7.4c0,0.9-0.3,1.7-1,2.3
		c-0.6,0.6-1.4,0.9-2.2,0.9c-0.9,0-1.7-0.3-2.3-0.9c-0.6-0.6-0.9-1.4-0.9-2.3v-25.4H167.5z M173.9,597.3c0,0.6,0.1,1.2,0.4,1.8
		c0.3,0.6,0.6,1.1,1,1.5s0.9,0.8,1.5,1s1.2,0.4,1.8,0.4c1.3,0,2.4-0.4,3.4-1.3c0.9-0.9,1.4-2,1.4-3.3v-8c0-0.6-0.1-1.2-0.4-1.8
		c-0.3-0.6-0.6-1-1-1.5s-0.9-0.8-1.5-1s-1.2-0.4-1.8-0.4c-1.3,0-2.4,0.5-3.4,1.4c-0.9,0.9-1.4,2-1.4,3.3V597.3z"/>
</g>
<g>
	<circle class="st5" cx="214.6" cy="467.2" r="48.5"/>
	<path class="st1" d="M249.7,483.7c-1.9,3.9-4.4,7.6-7.7,10.9c-15.2,15.2-39.7,15.2-54.9,0s-15.2-39.7,0-54.9s39.7-15.2,54.9,0
		c5.8,5.8,9.4,13,10.8,20.5"/>
	<path d="M203.1,458.4c0-1.5,0.3-2.9,0.9-4.3c0.6-1.3,1.4-2.5,2.4-3.5s2.2-1.8,3.5-2.4s2.8-0.9,4.4-0.9c1.5,0,3,0.3,4.3,0.9
		c1.4,0.6,2.6,1.4,3.6,2.4s1.8,2.2,2.4,3.5c0.6,1.3,0.9,2.8,0.9,4.3v8c0,1.5-0.3,3-0.9,4.3c-0.6,1.3-1.4,2.5-2.4,3.5
		s-2.2,1.8-3.5,2.4s-2.8,0.9-4.4,0.9c-0.8,0-1.7-0.1-2.5-0.3c-0.8-0.2-1.6-0.5-2.2-0.8v7.4c0,0.9-0.3,1.7-1,2.3
		c-0.6,0.6-1.4,0.9-2.2,0.9c-0.9,0-1.7-0.3-2.3-0.9s-0.9-1.4-0.9-2.3v-25.4H203.1z M209.5,466.4c0,0.6,0.1,1.2,0.4,1.8
		c0.3,0.6,0.6,1.1,1,1.5s0.9,0.8,1.5,1s1.2,0.4,1.8,0.4c1.3,0,2.4-0.4,3.4-1.3c0.9-0.9,1.4-2,1.4-3.3v-8c0-0.6-0.1-1.2-0.4-1.8
		c-0.3-0.6-0.6-1-1-1.5s-0.9-0.8-1.5-1s-1.2-0.4-1.8-0.4c-1.3,0-2.4,0.5-3.4,1.4c-0.9,0.9-1.4,2-1.4,3.3V466.4z"/>
</g>
<g>
	<circle class="st0" cx="217.1" cy="658" r="48.5"/>
	<path class="st1" d="M208.9,696.3c-4.3-0.9-8.4-2.6-12.3-5c-18.2-11.4-23.7-35.3-12.3-53.5s35.3-23.7,53.5-12.3
		s23.7,35.3,12.3,53.5c-4.4,7-10.6,12.1-17.6,15.1"/>
	<path d="M206,653.9c0-1.5,0.3-2.9,0.9-4.3c0.6-1.3,1.4-2.5,2.4-3.5s2.2-1.8,3.5-2.4c1.3-0.6,2.8-0.9,4.4-0.9c1.5,0,3,0.3,4.3,0.9
		c1.4,0.6,2.5,1.4,3.6,2.4s1.8,2.2,2.4,3.5c0.6,1.3,0.9,2.8,0.9,4.3v4c0,0.9-0.3,1.7-0.9,2.3c-0.6,0.6-1.4,0.9-2.2,0.9h-12.7v0.8
		c0,1.3,0.5,2.4,1.4,3.3c0.9,0.9,2,1.3,3.3,1.3c0.5,0,1-0.1,1.6-0.2c0.6-0.1,1.2-0.5,1.8-1.2c0.2-0.3,0.5-0.6,0.9-0.9
		c0.4-0.3,0.8-0.5,1.2-0.7s0.9-0.2,1.4-0.2s1,0.2,1.4,0.6c0.6,0.4,1.1,1.1,1.3,1.9c0.2,0.8,0,1.7-0.6,2.6c-0.9,1.2-2,2.2-3.4,3.1
		c-1.4,0.9-3.2,1.4-5.5,1.4c-1.5,0-3-0.3-4.3-0.9c-1.4-0.6-2.6-1.4-3.6-2.4s-1.8-2.2-2.4-3.5c-0.6-1.3-0.9-2.8-0.9-4.3v-7.9H206z
		 M212.4,654.7h9.4v-0.8c0-0.6-0.1-1.2-0.4-1.8c-0.3-0.6-0.6-1-1-1.5s-0.9-0.8-1.5-1s-1.2-0.4-1.8-0.4c-1.3,0-2.4,0.5-3.3,1.4
		c-0.9,0.9-1.3,2-1.3,3.3v0.8H212.4z"/>
</g>
<g>
	<circle class="st0" cx="265.6" cy="515.7" r="48.5"/>
	<path class="st1" d="M257.4,554c-4.3-0.9-8.4-2.6-12.3-5c-18.2-11.4-23.7-35.3-12.3-53.5s35.3-23.7,53.5-12.3
		c18.2,11.4,23.7,35.3,12.3,53.5c-4.4,7-10.6,12.1-17.6,15.1"/>
	<path d="M254.5,511.6c0-1.5,0.3-2.9,0.9-4.3c0.6-1.3,1.4-2.5,2.4-3.5s2.2-1.8,3.5-2.4s2.8-0.9,4.4-0.9c1.5,0,3,0.3,4.3,0.9
		c1.4,0.6,2.5,1.4,3.6,2.4s1.8,2.2,2.4,3.5s0.9,2.8,0.9,4.3v4c0,0.9-0.3,1.7-0.9,2.3s-1.4,0.9-2.2,0.9h-12.7v0.8
		c0,1.3,0.5,2.4,1.4,3.3c0.9,0.9,2,1.3,3.3,1.3c0.5,0,1-0.1,1.6-0.2c0.6-0.1,1.2-0.5,1.8-1.2c0.2-0.3,0.5-0.6,0.9-0.9
		c0.4-0.3,0.8-0.5,1.2-0.7c0.4-0.2,0.9-0.2,1.4-0.2s1,0.2,1.4,0.6c0.6,0.4,1.1,1.1,1.3,1.9c0.2,0.8,0,1.7-0.6,2.6
		c-0.9,1.2-2,2.2-3.4,3.1c-1.4,0.9-3.2,1.4-5.5,1.4c-1.5,0-3-0.3-4.3-0.9c-1.4-0.6-2.6-1.4-3.6-2.4s-1.8-2.2-2.4-3.5
		s-0.9-2.8-0.9-4.3v-7.9H254.5z M260.9,512.4h9.4v-0.8c0-0.6-0.1-1.2-0.4-1.8c-0.3-0.6-0.6-1-1-1.5s-0.9-0.8-1.5-1s-1.2-0.4-1.8-0.4
		c-1.3,0-2.4,0.5-3.3,1.4s-1.3,2-1.3,3.3v0.8H260.9z"/>
</g>
<g>
	<circle class="st4" cx="314.1" cy="667.7" r="48.5"/>
	<path class="st1" d="M351.9,660c0.9,4.3,1.2,8.7,0.6,13.3c-2.7,21.3-22.1,36.3-43.4,33.6s-36.3-22.1-33.6-43.4s22.1-36.3,43.4-33.6
		c8.2,1,15.4,4.5,21.1,9.7"/>
	<path d="M303.5,663.1c0.2-1.5,0.7-2.9,1.4-4.1c0.7-1.3,1.7-2.3,2.8-3.2c1.1-0.9,2.4-1.5,3.8-1.9s2.9-0.5,4.4-0.3s2.9,0.7,4.2,1.4
		c1.3,0.7,2.4,1.7,3.2,2.8c0.9,1.1,1.5,2.4,1.9,3.8c0.4,1.4,0.5,2.9,0.3,4.4l-2,15.5c-0.1,0.9-0.5,1.6-1.2,2.2
		c-0.7,0.5-1.5,0.7-2.3,0.6c-0.4-0.1-0.9-0.2-1.3-0.5s-0.8-0.6-1.1-0.9c-1.8,0.7-3.7,0.9-5.6,0.7c-1.5-0.2-2.9-0.7-4.2-1.4
		c-1.3-0.7-2.4-1.7-3.2-2.8c-0.9-1.1-1.5-2.4-1.9-3.8c-0.4-1.4-0.5-2.9-0.3-4.4L303.5,663.1z M308.9,671.9c-0.2,1.3,0.2,2.4,1,3.4
		s1.8,1.6,3.1,1.8c1.3,0.2,2.4-0.1,3.4-0.8s1.6-1.7,1.9-2.9l1-8.2c0.1-0.6,0-1.2-0.2-1.8s-0.5-1.1-0.8-1.6c-0.4-0.5-0.8-0.9-1.4-1.2
		c-0.5-0.3-1.1-0.5-1.8-0.6c-1.3-0.2-2.5,0.1-3.5,0.9c-1,0.8-1.6,1.8-1.8,3.1L308.9,671.9z"/>
</g>
<g>
	<circle class="st4" cx="435.9" cy="578.2" r="48.5"/>
	<path class="st1" d="M472.4,565.9c1.5,4.1,2.3,8.5,2.3,13.1c0,21.4-17.4,38.8-38.8,38.8s-38.8-17.4-38.8-38.8s17.4-38.8,38.8-38.8
		c8.2,0,15.9,2.6,22.1,6.9"/>
	<path d="M424.7,575c0-1.5,0.3-2.9,0.9-4.3c0.6-1.3,1.4-2.5,2.4-3.5s2.2-1.8,3.5-2.4c1.3-0.6,2.8-0.9,4.4-0.9c1.5,0,3,0.3,4.3,0.9
		c1.4,0.6,2.5,1.4,3.6,2.4s1.8,2.2,2.4,3.5s0.9,2.8,0.9,4.3v15.7c0,0.9-0.3,1.7-1,2.3c-0.6,0.6-1.4,0.9-2.2,0.9
		c-0.4,0-0.9-0.1-1.4-0.4c-0.5-0.2-0.9-0.5-1.2-0.8c-1.7,0.9-3.5,1.4-5.5,1.4c-1.5,0-3-0.3-4.3-0.9c-1.4-0.6-2.6-1.4-3.6-2.4
		s-1.8-2.2-2.4-3.5s-0.9-2.8-0.9-4.3v-8H424.7z M431.2,583c0,1.3,0.5,2.4,1.4,3.3c0.9,0.9,2,1.3,3.3,1.3s2.4-0.4,3.3-1.3
		s1.4-1.9,1.5-3.1V575c0-0.6-0.1-1.2-0.4-1.8s-0.6-1-1-1.5s-0.9-0.8-1.5-1s-1.2-0.4-1.8-0.4c-1.3,0-2.4,0.5-3.3,1.4s-1.3,2-1.3,3.3
		v8H431.2z"/>
</g>
<g>
	
		<ellipse transform="matrix(0.1602 -0.9871 0.9871 0.1602 -222.658 1013.697)" class="st5" cx="484.4" cy="637.7" rx="48.5" ry="48.5"/>
	<path class="st1" d="M519.5,654.2c-1.9,3.9-4.4,7.6-7.7,10.9c-15.2,15.2-39.7,15.2-54.9,0s-15.2-39.7,0-54.9s39.7-15.2,54.9,0
		c5.8,5.8,9.4,13,10.8,20.5"/>
	<path d="M473.5,633.6c0-1.6,0.3-3,0.9-4.4s1.4-2.5,2.5-3.5c1-1,2.2-1.8,3.6-2.3c1.4-0.6,2.9-0.9,4.4-0.9c0.3,0,0.8,0.1,1.7,0.2
		c0.8,0.1,1.8,0.4,2.8,0.9s2,1.2,3.1,2.1c1,0.9,1.9,2.2,2.6,3.8c0.1,0.2,0.1,0.3,0.2,0.5c0,0.2,0.1,0.4,0.1,0.6
		c0,0.9-0.3,1.7-0.9,2.3s-1.4,0.9-2.3,0.9c-0.6,0-1.2-0.2-1.8-0.5c-0.5-0.4-0.9-0.8-1.2-1.4c-0.4-0.9-1-1.6-1.8-2.1
		s-1.7-0.8-2.6-0.8c-1.3,0-2.4,0.5-3.4,1.4c-0.9,0.9-1.4,2-1.4,3.3v8c0,0.6,0.1,1.2,0.4,1.8s0.6,1.1,1,1.5s0.9,0.8,1.5,1
		s1.2,0.4,1.8,0.4c0.9,0,1.8-0.2,2.6-0.8c0.8-0.5,1.4-1.2,1.8-2.1c0.2-0.6,0.6-1,1.1-1.4s1.1-0.6,1.8-0.6c0.9,0,1.7,0.3,2.3,1
		c0.6,0.6,0.9,1.4,0.9,2.3c0,0.3-0.1,0.7-0.3,1.2c-0.8,1.8-1.8,3.2-2.9,4.1c-1.2,0.9-2.3,1.6-3.4,2s-2,0.6-2.8,0.7
		c-0.8,0-1.2,0.1-1.2,0.1c-1.5,0-3-0.3-4.3-0.9c-1.4-0.6-2.6-1.4-3.6-2.4s-1.8-2.2-2.4-3.5s-0.9-2.8-0.9-4.3v-8.2H473.5z"/>
</g>
<g>
	
		<ellipse transform="matrix(0.1602 -0.9871 0.9871 0.1602 -93.0876 935.7886)" class="st5" cx="503.4" cy="522.6" rx="48.5" ry="48.5"/>
	<path class="st1" d="M540.1,535.1c-1.4,4.1-3.5,8.1-6.4,11.7c-13.3,16.8-37.8,19.5-54.5,6.2s-19.5-37.8-6.2-54.5
		c13.3-16.8,37.8-19.5,54.5-6.2c6.4,5.1,10.8,11.9,13,19.2"/>
	<path d="M492.1,519.8c-0.2-1.6,0-3,0.4-4.5c0.4-1.4,1.1-2.7,2-3.8c0.9-1.1,2-2,3.3-2.7s2.7-1.2,4.3-1.4c0.3,0,0.8,0,1.7,0
		c0.8,0,1.8,0.2,2.9,0.5s2.2,0.9,3.3,1.7c1.1,0.8,2.1,2,3,3.5c0.1,0.2,0.2,0.3,0.2,0.5c0.1,0.2,0.1,0.4,0.1,0.6
		c0.1,0.9-0.1,1.7-0.7,2.4c-0.5,0.7-1.3,1.1-2.2,1.2c-0.6,0.1-1.2,0-1.8-0.3c-0.6-0.3-1-0.7-1.3-1.3c-0.5-0.8-1.2-1.5-2-1.9
		c-0.9-0.4-1.7-0.6-2.7-0.5c-1.3,0.1-2.4,0.7-3.2,1.7c-0.8,1-1.1,2.1-1,3.4l0.9,8c0.1,0.6,0.3,1.2,0.6,1.7c0.3,0.5,0.7,1,1.2,1.3
		c0.5,0.4,1,0.6,1.6,0.8s1.2,0.2,1.9,0.2c0.9-0.1,1.7-0.4,2.5-1c0.7-0.6,1.3-1.4,1.5-2.3c0.2-0.6,0.5-1.1,1-1.5s1-0.7,1.7-0.8
		c0.9-0.1,1.7,0.1,2.4,0.7c0.7,0.6,1.1,1.3,1.2,2.2c0,0.3,0,0.7-0.2,1.2c-0.6,1.9-1.4,3.4-2.5,4.4c-1,1.1-2.1,1.9-3.1,2.4
		s-1.9,0.9-2.7,1c-0.8,0.1-1.1,0.2-1.2,0.2c-1.5,0.2-3,0-4.4-0.4s-2.7-1.1-3.8-2c-1.1-0.9-2.1-2-2.8-3.2c-0.7-1.3-1.2-2.7-1.3-4.2
		L492.1,519.8z"/>
</g>
<g>
	<circle class="st0" cx="401.4" cy="664.3" r="48.5"/>
	<path class="st1" d="M393.2,702.6c-4.3-0.9-8.4-2.6-12.3-5c-18.2-11.4-23.7-35.3-12.3-53.5c11.4-18.2,35.3-23.7,53.5-12.3
		s23.7,35.3,12.3,53.5c-4.4,7-10.6,12.1-17.6,15.1"/>
	<path d="M390.3,660.3c0-1.5,0.3-2.9,0.9-4.3c0.6-1.3,1.4-2.5,2.4-3.5s2.2-1.8,3.5-2.4c1.3-0.6,2.8-0.9,4.4-0.9c1.5,0,3,0.3,4.3,0.9
		c1.4,0.6,2.5,1.4,3.6,2.4s1.8,2.2,2.4,3.5s0.9,2.8,0.9,4.3v4c0,0.9-0.3,1.7-0.9,2.3s-1.4,0.9-2.2,0.9h-12.7v0.8
		c0,1.3,0.5,2.4,1.4,3.3c0.9,0.9,2,1.3,3.3,1.3c0.5,0,1-0.1,1.6-0.2c0.6-0.1,1.2-0.5,1.8-1.2c0.2-0.3,0.5-0.6,0.9-0.9
		c0.4-0.3,0.8-0.5,1.2-0.7c0.4-0.2,0.9-0.2,1.4-0.2s1,0.2,1.4,0.6c0.6,0.4,1.1,1.1,1.3,1.9c0.2,0.8,0,1.7-0.6,2.6
		c-0.9,1.2-2,2.2-3.4,3.1c-1.4,0.9-3.2,1.4-5.5,1.4c-1.5,0-3-0.3-4.3-0.9c-1.4-0.6-2.6-1.4-3.6-2.4s-1.8-2.2-2.4-3.5
		s-0.9-2.8-0.9-4.3v-7.9H390.3z M396.7,661h9.4v-0.8c0-0.6-0.1-1.2-0.4-1.8s-0.6-1-1-1.5s-0.9-0.8-1.5-1s-1.2-0.4-1.8-0.4
		c-1.3,0-2.4,0.5-3.3,1.4s-1.3,2-1.3,3.3v0.8H396.7z"/>
</g>
<g>
	<circle class="st5" cx="362.3" cy="598.1" r="48.5"/>
	<path class="st1" d="M401,601.6c-0.4,4.3-1.5,8.7-3.5,12.8c-9.1,19.4-32.2,27.8-51.6,18.7s-27.8-32.2-18.7-51.6
		c9.1-19.4,32.2-27.8,51.6-18.7c7.5,3.5,13.3,9,17.1,15.6"/>
	<path d="M348.5,593.7c-0.5-1.4-0.7-2.9-0.6-4.3c0.1-1.5,0.4-2.8,1-4.1s1.4-2.5,2.5-3.5s2.3-1.8,3.8-2.3c1.4-0.5,2.9-0.7,4.4-0.7
		c1.5,0.1,2.9,0.4,4.2,1c1.3,0.6,2.5,1.4,3.5,2.5s1.8,2.3,2.3,3.7l2.7,7.6c0.5,1.4,0.7,2.9,0.6,4.3c-0.1,1.5-0.4,2.8-1,4.1
		s-1.4,2.5-2.5,3.5s-2.3,1.8-3.8,2.3c-0.8,0.3-1.6,0.5-2.4,0.6s-1.6,0.1-2.4,0l2.5,6.9c0.3,0.9,0.3,1.7-0.1,2.5s-1,1.3-1.8,1.6
		c-0.9,0.3-1.7,0.3-2.5-0.1c-0.8-0.4-1.3-1-1.7-1.9L348.5,593.7z M357.3,599.1c0.2,0.6,0.5,1.1,1,1.6c0.4,0.4,0.9,0.8,1.5,1
		c0.5,0.3,1.1,0.4,1.7,0.4s1.2-0.1,1.8-0.3c1.2-0.5,2.1-1.3,2.7-2.4c0.6-1.2,0.6-2.3,0.2-3.5l-2.7-7.6c-0.2-0.6-0.5-1.1-1-1.6
		c-0.4-0.4-0.9-0.8-1.5-1c-0.5-0.3-1.1-0.4-1.7-0.4s-1.2,0.1-1.8,0.3c-1.2,0.5-2.1,1.3-2.7,2.4c-0.6,1.2-0.6,2.3-0.2,3.5
		L357.3,599.1z"/>
</g>
<g>
	<circle class="st4" cx="429.1" cy="506" r="48.5"/>
	<path class="st1" d="M465.6,493.6c1.5,4.1,2.3,8.5,2.3,13.1c0,21.4-17.4,38.8-38.8,38.8s-38.8-17.4-38.8-38.8s17.4-38.8,38.8-38.8
		c8.2,0,15.9,2.6,22.1,6.9"/>
	<path d="M417.9,502.7c0-1.5,0.3-2.9,0.9-4.3c0.6-1.3,1.4-2.5,2.4-3.5s2.2-1.8,3.5-2.4s2.8-0.9,4.4-0.9c1.5,0,3,0.3,4.3,0.9
		c1.4,0.6,2.5,1.4,3.6,2.4s1.8,2.2,2.4,3.5s0.9,2.8,0.9,4.3v15.7c0,0.9-0.3,1.7-1,2.3c-0.6,0.6-1.4,0.9-2.2,0.9
		c-0.4,0-0.9-0.1-1.4-0.4c-0.5-0.2-0.9-0.5-1.2-0.8c-1.7,0.9-3.5,1.4-5.5,1.4c-1.5,0-3-0.3-4.3-0.9c-1.4-0.6-2.6-1.4-3.6-2.4
		s-1.8-2.2-2.4-3.5s-0.9-2.8-0.9-4.3v-8H417.9z M424.4,510.8c0,1.3,0.5,2.4,1.4,3.3c0.9,0.9,2,1.3,3.3,1.3s2.4-0.4,3.3-1.3
		s1.4-1.9,1.5-3.1v-8.3c0-0.6-0.1-1.2-0.4-1.8c-0.3-0.6-0.6-1-1-1.5s-0.9-0.8-1.5-1s-1.2-0.4-1.8-0.4c-1.3,0-2.4,0.5-3.3,1.4
		s-1.3,2-1.3,3.3v8.1H424.4z"/>
</g>
<g>
	<circle class="st0" cx="341.8" cy="518.8" r="48.5"/>
	<path class="st1" d="M321.2,552.2c-3.7-2.3-7.1-5.3-9.9-8.9c-13.3-16.8-10.5-41.2,6.2-54.5s41.2-10.5,54.5,6.2
		c13.3,16.8,10.5,41.2-6.2,54.5c-6.4,5.1-14,7.9-21.6,8.3"/>
	<path d="M332.6,511.3c0.5-1.4,1.3-2.7,2.3-3.8c1-1.1,2.1-1.9,3.4-2.5s2.7-1,4.1-1.1c1.5-0.1,2.9,0.1,4.4,0.6
		c1.4,0.5,2.7,1.3,3.8,2.3c1.1,1,1.9,2.2,2.6,3.5c0.6,1.3,1,2.7,1.1,4.1c0.1,1.5-0.1,2.9-0.6,4.3l-1.3,3.8c-0.3,0.9-0.9,1.5-1.6,1.9
		c-0.8,0.4-1.6,0.4-2.4,0.1l-11.9-4.2L336,521c-0.4,1.2-0.4,2.4,0.2,3.5c0.6,1.2,1.5,1.9,2.7,2.4c0.5,0.2,1,0.3,1.6,0.4
		c0.6,0.1,1.3-0.1,2.1-0.5c0.3-0.2,0.7-0.4,1.1-0.5c0.4-0.2,0.9-0.2,1.3-0.3c0.4,0,0.9,0.1,1.3,0.3s0.8,0.5,1.2,1
		c0.5,0.6,0.7,1.4,0.6,2.2s-0.6,1.6-1.5,2.3c-1.2,0.8-2.6,1.4-4.3,1.8c-1.6,0.4-3.5,0.2-5.7-0.5c-1.4-0.5-2.7-1.3-3.8-2.3
		c-1.1-1-1.9-2.2-2.6-3.5c-0.6-1.3-1-2.7-1.1-4.1c-0.1-1.5,0.1-2.9,0.6-4.3L332.6,511.3z M338.4,514.2l8.9,3.1l0.3-0.7
		c0.2-0.6,0.3-1.2,0.2-1.8c-0.1-0.6-0.2-1.2-0.5-1.7s-0.6-1-1.1-1.4s-1-0.7-1.6-1c-1.2-0.4-2.4-0.4-3.6,0.2
		c-1.1,0.5-1.9,1.4-2.4,2.6L338.4,514.2z"/>
</g>
<g>
	<g>
		<path class="st6" d="M223.8,304.1c0-2.2,0.4-4.1,1.2-5.9c0.8-1.7,1.8-3.2,3.2-4.2c1.4-1.1,2.9-1.8,4.8-2.2
			c1.8-0.4,3.7-0.3,5.8,0.2s4,1.4,5.8,2.6s3.4,2.7,4.8,4.4c1.4,1.7,2.5,3.6,3.2,5.7c0.8,2.1,1.2,4.2,1.2,6.4c0,1-0.1,2.1-0.2,3.2
			c-0.1,1.1-0.3,2.2-0.6,3.3c-0.3,1.1-0.7,2.1-1.2,3s-1.2,1.6-2,2.2c0.9,1,1.7,2.2,2.5,3.6s1.4,2.9,1.9,4.5s0.9,3.1,1.2,4.7
			s0.4,3.1,0.4,4.4c0,2.5-0.4,4.7-1.3,6.7c-0.9,2-2.1,3.7-3.7,5.1c-1.5,1.4-3.4,2.4-5.5,2.9c-2.1,0.6-4.3,0.6-6.7,0.2
			c-2.3-0.5-4.6-1.4-6.6-2.8c-2.1-1.4-3.9-3.1-5.4-5.2c-1.5-2-2.8-4.3-3.7-6.7c-0.9-2.4-1.4-4.9-1.4-7.4c0-1.4,0.4-2.4,1.3-3.2
			c0.9-0.7,1.9-0.9,3.2-0.6c1.2,0.3,2.3,1,3.2,2.2c0.9,1.1,1.3,2.4,1.3,3.8c0,2.4,0.8,4.6,2.3,6.6c1.6,2,3.5,3.2,5.7,3.7
			c2.3,0.5,4.2,0,5.8-1.3s2.4-3.2,2.4-5.7c0-1.1-0.2-2.3-0.6-3.5c-0.4-1.2-1-2.4-1.8-3.6c-0.8-1.1-1.6-2.1-2.6-2.9s-2-1.4-3.1-1.7
			c-1.2-0.3-2.3-1-3.1-2.3c-0.9-1.2-1.3-2.5-1.3-3.8s0.4-2.4,1.1-3.4c0.8-0.9,1.9-1.2,3.3-0.9c0.1,0,0.2,0,0.3,0.1
			c1.2,0.2,2.1,0.1,2.9-0.2c0.8-0.3,1.3-0.9,1.8-1.6c0.4-0.7,0.7-1.5,0.8-2.4s0.2-1.8,0.2-2.6c0-1.7-0.6-3.3-1.8-4.8
			s-2.6-2.4-4.2-2.8c-1.7-0.4-3.1-0.1-4.2,0.8c-1.1,1-1.7,2.3-1.7,4c0,1.4-0.4,2.4-1.3,3.1c-0.9,0.7-1.9,0.9-3.2,0.6
			s-2.3-1.1-3.2-2.2C224.2,306.9,223.8,305.6,223.8,304.1z"/>
		<path class="st6" d="M260.7,328.9c0-2.2,0.4-4.3,1.2-6.1c0.8-1.8,1.9-3.4,3.4-4.7c1.4-1.3,3.1-2.2,5-2.7c1.9-0.6,3.9-0.7,6.1-0.4
			c2.1,0.3,4.2,1,6.1,2.1s3.6,2.4,5.1,4.1c1.4,1.6,2.6,3.4,3.4,5.5c0.8,2,1.2,4.1,1.2,6.3c0,4.6,0,7,0,11.6c0,2.2-0.4,4.2-1.2,6.1
			c-0.8,1.9-2,3.5-3.4,4.8c-1.4,1.4-3.1,2.4-5,3c-1.9,0.7-3.9,0.9-6.1,0.6c-1.2-0.1-2.4-0.4-3.5-0.8c-1.2-0.4-2.2-0.9-3.2-1.5
			c0,4.3,0,6.5,0,10.8c0,1.3-0.5,2.4-1.4,3.2c-0.9,0.8-1.9,1.1-3.1,1c-1.3-0.2-2.4-0.8-3.3-1.8s-1.3-2.2-1.3-3.6
			C260.7,353.9,260.7,341.4,260.7,328.9z M269.8,342.1c0,0.9,0.2,1.8,0.6,2.7c0.4,0.9,0.8,1.6,1.4,2.3c0.6,0.7,1.3,1.3,2.1,1.7
			c0.8,0.4,1.7,0.7,2.6,0.8c1.9,0.2,3.4-0.3,4.7-1.4c1.3-1.2,2-2.7,2-4.5c0-4.7,0-7,0-11.7c0-0.9-0.2-1.8-0.6-2.7
			c-0.4-0.9-0.8-1.6-1.4-2.3c-0.6-0.7-1.3-1.2-2.1-1.7c-0.8-0.5-1.7-0.7-2.6-0.9c-1.9-0.2-3.4,0.2-4.7,1.3c-1.3,1.1-1.9,2.6-1.9,4.5
			C269.8,335,269.8,337.4,269.8,342.1z"/>
		<path class="st6" d="M297.2,333.3c0-2.2,0.4-4.2,1.2-6.1c0.8-1.9,2-3.5,3.4-4.8c1.4-1.4,3.1-2.4,5-3.1s4-1,6.2-0.9
			s4.2,0.6,6.1,1.5s3.6,2.1,5.1,3.5c1.4,1.5,2.6,3.2,3.4,5.1s1.2,3.9,1.2,6.1c0,2.3,0,3.4,0,5.7c0,1.3-0.4,2.4-1.3,3.3
			s-1.9,1.3-3.2,1.3c-7.2-0.1-10.8-0.2-18-0.5c0,0.4,0,0.7,0,1.1c0,1.8,0.7,3.4,2,4.8c1.3,1.3,2.9,2,4.7,2.1c0.7,0,1.5,0,2.3-0.2
			c0.9-0.1,1.7-0.7,2.5-1.7c0.3-0.4,0.8-0.8,1.3-1.2c0.5-0.4,1.1-0.7,1.7-1c0.6-0.2,1.2-0.3,1.9-0.3c0.7,0,1.4,0.3,2,0.8
			c0.9,0.6,1.5,1.5,1.8,2.7s0,2.4-0.9,3.7c-1.3,1.6-2.9,3.1-4.9,4.4s-4.6,2-7.8,1.9c-2.2-0.1-4.2-0.5-6.1-1.4s-3.6-2.1-5.1-3.7
			c-1.4-1.5-2.6-3.3-3.4-5.3s-1.2-4.1-1.2-6.2C297.2,340.3,297.2,337.9,297.2,333.3z M306.4,335c5.3,0.3,8,0.4,13.4,0.5
			c0-0.4,0-0.7,0-1.1c0-0.9-0.2-1.8-0.6-2.6c-0.4-0.8-0.9-1.5-1.4-2.1c-0.6-0.6-1.3-1.1-2.1-1.5c-0.8-0.4-1.7-0.6-2.6-0.6
			c-1.9-0.1-3.4,0.5-4.7,1.7s-1.9,2.7-1.9,4.6C306.4,334.4,306.4,334.6,306.4,335z"/>
		<path class="st6" d="M333.8,334.6c0-2.1,0.4-4.1,1.2-6c0.8-1.9,2-3.5,3.4-5c1.4-1.4,3.1-2.6,5-3.4s4-1.3,6.2-1.4s4.2,0.2,6.1,1
			c1.9,0.7,3.6,1.7,5.1,3c1.4,1.3,2.6,2.9,3.4,4.6c0.8,1.8,1.2,3.7,1.2,5.8c0,8.6,0,12.9,0,21.5c0,1.3-0.5,2.4-1.4,3.3
			s-2,1.5-3.1,1.6c-0.6,0.1-1.3-0.1-1.9-0.3c-0.7-0.3-1.2-0.6-1.7-0.9c-2.4,1.5-5,2.3-7.7,2.5c-2.2,0.1-4.2-0.2-6.1-0.9
			c-1.9-0.7-3.6-1.8-5.1-3.2c-1.4-1.4-2.6-3-3.4-4.9s-1.2-3.9-1.2-6C333.8,341.4,333.8,339.1,333.8,334.6z M343,345.7
			c0,1.8,0.7,3.3,2,4.5s2.9,1.7,4.7,1.6c1.8-0.1,3.4-0.8,4.6-2c1.3-1.2,2-2.7,2.1-4.5c0-4.6,0-6.9,0-11.5c0-0.9-0.2-1.7-0.6-2.5
			s-0.9-1.4-1.4-2c-0.6-0.6-1.3-1-2.1-1.3c-0.8-0.3-1.7-0.4-2.6-0.4c-1.9,0.1-3.4,0.8-4.7,2c-1.3,1.3-1.9,2.8-1.9,4.6
			C343,338.9,343,341.2,343,345.7z"/>
		<path class="st6" d="M370.5,332.8c0-2.1,0.4-4.2,1.3-6.1c0.8-1.9,2-3.6,3.5-5.1s3.2-2.7,5.1-3.7s4-1.6,6.2-1.9
			c0.4,0,1.2-0.1,2.4,0c1.2,0,2.5,0.2,3.9,0.7c1.4,0.4,2.9,1.2,4.3,2.2s2.6,2.6,3.6,4.6c0.1,0.2,0.2,0.4,0.3,0.7
			c0.1,0.3,0.1,0.5,0.1,0.8c0,1.2-0.4,2.3-1.3,3.3s-2,1.6-3.2,1.8c-0.9,0.1-1.7,0-2.5-0.4s-1.3-0.9-1.6-1.7
			c-0.6-1.1-1.4-1.9-2.5-2.5s-2.3-0.7-3.6-0.6c-1.9,0.2-3.4,1-4.7,2.4c-1.3,1.4-1.9,2.9-1.9,4.7c0,4.4,0,6.6,0,11
			c0,0.9,0.2,1.7,0.6,2.4c0.4,0.7,0.8,1.3,1.4,1.8s1.3,0.9,2.1,1.1c0.8,0.2,1.7,0.3,2.6,0.1c1.3-0.2,2.5-0.7,3.6-1.5s2-1.9,2.5-3.3
			c0.3-0.8,0.9-1.5,1.6-2.2c0.7-0.6,1.6-1,2.5-1.2c1.3-0.2,2.4,0,3.2,0.8c0.9,0.7,1.3,1.7,1.3,2.8c0,0.4-0.1,1-0.4,1.7
			c-1.1,2.6-2.5,4.7-4.1,6.2s-3.2,2.7-4.7,3.5s-2.8,1.3-3.9,1.5s-1.6,0.3-1.7,0.3c-2.1,0.3-4.2,0.2-6.1-0.3s-3.6-1.4-5-2.6
			s-2.6-2.7-3.4-4.5c-0.8-1.7-1.2-3.7-1.2-5.8C370.5,339.4,370.5,337.2,370.5,332.8z"/>
		<path class="st6" d="M405.6,328c0-2,0.4-4,1.2-6c0.8-1.9,1.9-3.7,3.4-5.3c1.4-1.6,3.1-3,5-4.1s3.9-1.9,6.1-2.4
			c2.1-0.4,4.1-0.5,6-0.1c1.9,0.3,3.5,1,5,2c1.4,1,2.5,2.3,3.3,3.8c0.8,1.6,1.2,3.3,1.2,5.3c0,2.1,0,3.2,0,5.3
			c0,1.2-0.4,2.3-1.3,3.4c-0.9,1-1.9,1.7-3.1,2c-7,1.8-10.6,2.6-17.7,4c0,0.4,0,0.6,0,1c0,1.7,0.6,3,1.9,3.9s2.8,1.2,4.6,0.8
			c0.7-0.2,1.4-0.4,2.3-0.8s1.7-1.1,2.5-2.2c0.3-0.4,0.8-0.9,1.3-1.4s1-1,1.6-1.3c0.6-0.4,1.2-0.6,1.9-0.7c0.7-0.1,1.3-0.1,2,0.2
			c0.9,0.4,1.5,1,1.8,2s0,2.2-0.9,3.7c-1.2,1.8-2.8,3.6-4.8,5.4c-1.9,1.7-4.5,3-7.7,3.7c-2.1,0.5-4.1,0.6-6,0.2s-3.6-1.1-5-2.2
			s-2.6-2.4-3.4-4.1c-0.8-1.6-1.2-3.5-1.2-5.5C405.6,334.5,405.6,332.3,405.6,328z M414.7,327.4c5.3-1.1,7.9-1.6,13.1-2.8
			c0-0.4,0-0.6,0-1c0-0.8-0.2-1.6-0.5-2.2c-0.4-0.7-0.8-1.2-1.4-1.6s-1.3-0.7-2.1-0.8c-0.8-0.1-1.7-0.1-2.6,0.1
			c-1.8,0.4-3.4,1.3-4.7,2.7c-1.3,1.4-1.9,3-1.9,4.7C414.7,326.8,414.7,327,414.7,327.4z"/>
	</g>
</g>
</svg>
